<?xml version="1.0" encoding="UTF-8"?><svg id="Layer_1" xmlns="http://www.w3.org/2000/svg" viewBox="0 0 270 116"><defs><style>.cls-1{fill:none;}.cls-2{fill:#fff;}.cls-3{fill:#c22127;}</style></defs><path class="cls-1" d="M269.6,68.2H66.21M17.98,68.2H.42M269.6,72.29H66.21M64.89,72.29h-20.69M39.99,72.29h-20.69M17.98,72.29H.42"/><path class="cls-2" d="M42.22,5.79c16.74,0,28.41,4.13,28.41,7.84s-11.67,7.84-28.41,7.84-28.41-4.13-28.41-7.84,11.67-7.84,28.41-7.84M42.22,4.79c-16.24,0-29.41,3.96-29.41,8.84s13.17,8.84,29.41,8.84,29.41-3.96,29.41-8.84-13.17-8.84-29.41-8.84h0Z"/><path class="cls-2" d="M23.81,11.64c-.1-.72-.79-1.27-1.59-1.27-1.43,0-1.97,1.22-1.97,2.49s.54,2.43,1.97,2.43c.98,0,1.52-.67,1.65-1.63h1.54c-.16,1.81-1.41,2.97-3.19,2.97-2.25,0-3.57-1.68-3.57-3.77s1.32-3.83,3.57-3.83c1.6,0,2.94.94,3.13,2.61h-1.54Z"/><path class="cls-2" d="M28.49,11.06c1.66,0,2.72,1.1,2.72,2.77s-1.07,2.76-2.72,2.76-2.71-1.1-2.71-2.76,1.07-2.77,2.71-2.77ZM28.49,15.51c.99,0,1.28-.84,1.28-1.68s-.29-1.69-1.28-1.69-1.27.84-1.27,1.69.29,1.68,1.27,1.68Z"/><path class="cls-2" d="M31.78,9.2h1.44v7.26h-1.44v-7.26Z"/><path class="cls-2" d="M35.15,14.18c.04.91.49,1.33,1.29,1.33.58,0,1.05-.36,1.14-.68h1.27c-.41,1.24-1.27,1.77-2.46,1.77-1.66,0-2.68-1.14-2.68-2.76s1.09-2.77,2.68-2.77c1.79,0,2.65,1.5,2.55,3.12h-3.79ZM37.5,13.27c-.13-.73-.45-1.12-1.15-1.12-.91,0-1.18.71-1.2,1.12h2.35Z"/><path class="cls-2" d="M39.43,11.2h1.36v.71h.02c.38-.54.92-.85,1.61-.85s1.25.24,1.53.87c.3-.46.85-.87,1.59-.87,1.12,0,1.92.52,1.92,1.88v3.52h-1.44v-2.98c0-.7-.06-1.28-.88-1.28s-.97.67-.97,1.33v2.93h-1.44v-2.95c0-.61.04-1.31-.87-1.31-.28,0-.98.18-.98,1.21v3.05h-1.44v-5.25Z"/><path class="cls-2" d="M48.12,12.82c.08-1.35,1.29-1.76,2.47-1.76,1.05,0,2.31.23,2.31,1.49v2.73c0,.48.05.96.18,1.17h-1.46c-.05-.16-.09-.34-.1-.51-.46.48-1.13.65-1.77.65-1,0-1.79-.5-1.79-1.58,0-1.19.89-1.47,1.79-1.6.88-.13,1.71-.1,1.71-.69,0-.62-.43-.71-.94-.71-.55,0-.9.22-.96.79h-1.44ZM51.46,13.89c-.24.21-.75.22-1.2.3-.45.09-.85.24-.85.77s.42.67.88.67c1.13,0,1.17-.89,1.17-1.21v-.54Z"/><path class="cls-2" d="M53.61,11.2h1.37v.73h.03c.37-.59,1-.87,1.61-.87,1.53,0,1.92.86,1.92,2.16v3.23h-1.44v-2.97c0-.86-.25-1.29-.92-1.29-.78,0-1.12.44-1.12,1.5v2.75h-1.44v-5.25Z"/><path class="cls-2" d="M59.37,9.2h1.44v1.55c.03.9-.6,1.6-1.44,1.71v-.67c.52-.17.67-.53.67-1.03h-.67v-1.56Z"/><path class="cls-2" d="M62.02,14.75c.01.63.54.88,1.11.88.42,0,.95-.16.95-.67,0-.44-.6-.59-1.64-.81-.83-.18-1.67-.48-1.67-1.4,0-1.34,1.16-1.69,2.29-1.69s2.21.39,2.32,1.68h-1.37c-.04-.56-.47-.71-.99-.71-.33,0-.8.06-.8.49,0,.52.81.59,1.64.78.84.19,1.67.5,1.67,1.47,0,1.38-1.2,1.83-2.4,1.83s-2.41-.46-2.47-1.85h1.37Z"/><path class="cls-3" d="M81.15,38.18h8.12l9.81,25.09h-8.61l-1.13-3.58h-8.57l-1.21,3.58h-8.34l9.93-25.09ZM87.68,54.31l-2.42-7.73h-.08l-2.6,7.73h5.1Z"/><path class="cls-3" d="M101.64,38.18h11.81l3.85,14.76h.08l3.85-14.76h11.81v25.09h-7.85v-16.09h-.08l-4.68,16.09h-6.19l-4.68-16.09h-.08v16.09h-7.85v-25.09Z"/><path class="cls-3" d="M138.07,38.18h8.3v25.09h-8.3v-25.09Z"/><path class="cls-3" d="M152.15,38.18h8.3v18.66h11.93v6.43h-20.23v-25.09Z"/><path class="cls-3" d="M178.12,44.61h-7.55v-6.43h23.4v6.43h-7.55v18.66h-8.3v-18.66Z"/><path class="cls-3" d="M209.14,37.58c8.19,0,13.66,5.48,13.66,13.14s-5.47,13.14-13.66,13.14-13.66-5.48-13.66-13.14,5.47-13.14,13.66-13.14ZM209.14,57.61c2.11,0,5.36-1.3,5.36-6.89s-3.25-6.89-5.36-6.89-5.36,1.3-5.36,6.89,3.25,6.89,5.36,6.89Z"/><path class="cls-3" d="M226.36,38.18h8.49l7.85,13.42h.08v-13.42h7.85v25.09h-8.08l-8.27-13.7h-.08v13.7h-7.85v-25.09Z"/><path class="cls-2" d="M19.29,87.23c.43-.02.74-.07.93-.17.32-.17.48-.49.48-.96v-7.77c0-.47-.15-.78-.45-.94-.18-.1-.5-.16-.96-.19v-.41h4.96c.96,0,1.75.11,2.38.33,1.19.41,1.79,1.16,1.79,2.26,0,.66-.24,1.19-.72,1.58-.48.39-1.01.64-1.57.74v.15c.6.12,1.11.31,1.55.58.86.53,1.28,1.27,1.28,2.22,0,.89-.41,1.61-1.23,2.16-.82.55-1.91.83-3.27.83h-5.16v-.41ZM25.26,81.17c.34-.32.51-.9.51-1.72,0-.61-.11-1.13-.33-1.54-.22-.42-.65-.63-1.28-.63-.33,0-.57.06-.7.17-.13.11-.2.31-.2.61v3.6c.99,0,1.66-.16,2-.49ZM23.38,86.77c.13.23.38.34.75.34.76,0,1.29-.21,1.59-.62.31-.41.46-1,.46-1.76,0-1.14-.34-1.9-1.01-2.27-.41-.23-1.05-.34-1.92-.32v4.01c0,.28.05.49.13.62Z"/><path class="cls-2" d="M35.09,76.79v.41c-.62.02-1.04.12-1.25.29-.21.17-.31.56-.31,1.18v5.38c0,.82.1,1.45.29,1.89.35.83,1.02,1.24,2.01,1.24,1.23,0,2.07-.46,2.5-1.37.24-.5.36-1.2.36-2.11v-4.91c0-.57-.11-.97-.32-1.19s-.63-.35-1.24-.4v-.41h3.52v.41c-.51.1-.85.22-1.01.36-.16.14-.25.47-.25.99v5.13c0,1.36-.33,2.42-.99,3.16-.66.74-1.69,1.11-3.1,1.11-1.84,0-3.1-.55-3.78-1.65-.36-.59-.54-1.34-.54-2.27v-5.37c0-.6-.08-.98-.24-1.14-.16-.16-.52-.26-1.08-.33v-.41h5.42Z"/><path class="cls-2" d="M41.57,87.23c.45-.01.78-.07.98-.16.32-.17.49-.49.49-.96v-7.77c0-.47-.15-.79-.46-.95-.19-.1-.52-.16-1-.18v-.41h5.61v.41c-.5.02-.85.08-1.03.17-.31.16-.47.48-.47.96v7.77c0,.45.13.75.38.9.25.15.63.23,1.13.23v.41h-5.61v-.41Z"/><path class="cls-2" d="M48.49,87.23c.44-.02.75-.07.94-.17.32-.17.48-.49.48-.96v-7.77c0-.47-.15-.78-.45-.94-.18-.1-.5-.16-.96-.19v-.41h5.61v.41c-.65.02-1.09.11-1.3.27-.22.16-.33.56-.33,1.19v7.58c0,.36.09.59.28.71.19.12.55.17,1.08.17.97,0,1.78-.21,2.43-.64.66-.43,1.22-1.25,1.7-2.49h.47l-.65,3.63h-9.29v-.41Z"/><path class="cls-2" d="M58.47,87.23c.4-.03.69-.08.87-.17.31-.16.47-.46.47-.89v-7.91c0-.41-.15-.7-.45-.86-.17-.09-.47-.16-.89-.2v-.41h4.9c1.98,0,3.49.53,4.53,1.58.95.96,1.42,2.25,1.42,3.87,0,1.45-.48,2.68-1.43,3.69-1.07,1.13-2.52,1.7-4.35,1.7h-5.07v-.41ZM62.59,86.87c.11.15.34.22.69.22.95,0,1.73-.34,2.34-1.01.61-.67.92-1.96.92-3.87,0-1.13-.16-2.11-.49-2.92-.53-1.31-1.43-1.97-2.69-1.97-.42,0-.69.09-.81.27-.08.12-.13.34-.13.67v7.9c.02.33.08.57.18.71Z"/><path class="cls-2" d="M70.1,87.23c.45-.01.78-.07.98-.16.32-.17.49-.49.49-.96v-7.77c0-.47-.15-.79-.46-.95-.19-.1-.52-.16-1-.18v-.41h5.61v.41c-.5.02-.85.08-1.03.17-.31.16-.47.48-.47.96v7.77c0,.45.13.75.38.9.25.15.63.23,1.13.23v.41h-5.61v-.41Z"/><path class="cls-2" d="M76.66,87.23c.6-.02.98-.13,1.15-.34.17-.21.26-.52.26-.94v-7.6c-.49-.55-.79-.87-.91-.97-.12-.1-.27-.16-.47-.18v-.41h3.4l5.51,6.7h.08v-4.71c0-.54-.1-.93-.3-1.16-.2-.23-.59-.37-1.18-.42v-.41h3.45v.41c-.5.08-.84.19-1.01.33-.17.14-.25.45-.25.94v9.45h-.45l-7.06-8.58h-.11v6.29c0,.49.07.84.2,1.05.21.33.65.51,1.32.54v.41h-3.63v-.41Z"/><path class="cls-2" d="M89.8,78.27c1.07-1.12,2.43-1.68,4.08-1.68.66,0,1.32.12,1.98.37.66.25,1.07.37,1.23.37.17,0,.31-.06.42-.18.1-.12.19-.3.26-.55h.45v3.75h-.41c-.39-.81-.78-1.46-1.18-1.93-.75-.87-1.6-1.3-2.55-1.3-1.03,0-1.79.45-2.26,1.35-.48.9-.71,2.16-.71,3.79,0,1.34.22,2.53.66,3.58s1.29,1.57,2.56,1.57c.68,0,1.14-.14,1.38-.43.14-.16.2-.41.2-.74v-1.69c0-.49-.15-.8-.45-.96-.19-.09-.58-.15-1.17-.16v-.41h5.5v.41c-.55.02-.92.13-1.1.33s-.27.58-.27,1.13v2.04c-.36.22-.93.44-1.72.66s-1.68.33-2.66.33c-1.78,0-3.2-.56-4.27-1.68-.99-1.05-1.49-2.37-1.49-3.95s.51-2.94,1.54-4.03Z"/><path class="cls-2" d="M104.72,83.89h.46c.26,1.2.67,2.07,1.24,2.61.57.54,1.22.82,1.96.82s1.22-.19,1.52-.56c.3-.37.45-.77.45-1.18,0-.48-.16-.87-.47-1.18-.21-.2-.63-.46-1.26-.78l-1.02-.52c-1.01-.51-1.73-1.02-2.15-1.52-.42-.5-.63-1.12-.63-1.86,0-.78.28-1.52.83-2.19.55-.68,1.4-1.02,2.54-1.02.58,0,1.14.09,1.68.27.54.18.85.27.93.27.17,0,.3-.05.36-.15.07-.1.12-.24.16-.4h.48v3.49h-.45c-.21-.81-.58-1.51-1.11-2.09-.53-.58-1.17-.88-1.93-.88-.53,0-.95.15-1.26.44-.31.3-.46.65-.46,1.08,0,.51.14.89.43,1.14.28.26.92.63,1.91,1.13l1.18.6c.53.27.95.56,1.26.88.59.61.88,1.34.88,2.21,0,.81-.31,1.57-.94,2.29s-1.64,1.08-3.02,1.08c-.32,0-.64-.03-.97-.09s-.65-.15-.97-.28l-.31-.12c-.07-.02-.14-.04-.21-.05s-.12-.02-.17-.02c-.16,0-.28.05-.34.14s-.12.23-.16.41h-.46v-3.97Z"/><path class="cls-2" d="M118.75,76.79v.41c-.62.02-1.04.12-1.25.29-.21.17-.31.56-.31,1.18v5.38c0,.82.1,1.45.29,1.89.35.83,1.02,1.24,2.01,1.24,1.23,0,2.07-.46,2.5-1.37.24-.5.36-1.2.36-2.11v-4.91c0-.57-.11-.97-.32-1.19s-.63-.35-1.24-.4v-.41h3.52v.41c-.51.1-.85.22-1.01.36-.16.14-.25.47-.25.99v5.13c0,1.36-.33,2.42-.99,3.16-.66.74-1.69,1.11-3.1,1.11-1.84,0-3.1-.55-3.78-1.65-.36-.59-.54-1.34-.54-2.27v-5.37c0-.6-.08-.98-.24-1.14-.16-.16-.52-.26-1.08-.33v-.41h5.42Z"/><path class="cls-2" d="M125.24,87.23c.53-.04.88-.15,1.06-.33.18-.19.27-.56.27-1.13v-7.1c0-.6-.09-.98-.27-1.14-.18-.16-.54-.27-1.06-.32v-.41h5.16c1.37,0,2.41.22,3.12.67.71.44,1.07,1.21,1.07,2.29,0,.53-.14,1.02-.42,1.48-.28.46-.74.83-1.38,1.12-.49.2-.97.32-1.46.36-.49.04-1.21.06-2.16.06v2.99c0,.59.1.98.3,1.16.2.18.57.28,1.11.31v.41h-5.34v-.41ZM131.08,81.88c.51-.32.76-1.02.76-2.09,0-.73-.12-1.32-.37-1.77-.25-.45-.72-.67-1.41-.67-.32,0-.55.04-.69.11-.14.08-.21.22-.21.44v4.31c.96-.02,1.59-.13,1.91-.33Z"/><path class="cls-2" d="M135.36,87.23c.53-.04.88-.15,1.06-.33.18-.19.27-.56.27-1.13v-7.1c0-.6-.09-.98-.27-1.14-.18-.16-.54-.27-1.06-.32v-.41h5.16c1.37,0,2.41.22,3.12.67.71.44,1.07,1.21,1.07,2.29,0,.53-.14,1.02-.42,1.48-.28.46-.74.83-1.38,1.12-.49.2-.97.32-1.46.36-.49.04-1.21.06-2.16.06v2.99c0,.59.1.98.3,1.16.2.18.57.28,1.11.31v.41h-5.34v-.41ZM141.2,81.88c.51-.32.76-1.02.76-2.09,0-.73-.12-1.32-.37-1.77-.25-.45-.72-.67-1.41-.67-.32,0-.55.04-.69.11s-.21.22-.21.44v4.31c.96-.02,1.59-.13,1.91-.33Z"/><path class="cls-2" d="M145.51,87.23c.44-.02.75-.07.94-.17.32-.17.48-.49.48-.96v-7.77c0-.47-.15-.78-.45-.94-.18-.1-.5-.16-.96-.19v-.41h5.61v.41c-.65.02-1.09.11-1.3.27s-.32.56-.32,1.19v7.58c0,.36.09.59.28.71s.55.17,1.09.17c.97,0,1.78-.21,2.43-.64.66-.43,1.22-1.25,1.7-2.49h.47l-.65,3.63h-9.29v-.41Z"/><path class="cls-2" d="M159.4,76.79v.41c-.55.03-.91.07-1.07.13s-.23.16-.23.33c0,.07.01.15.04.24s.1.24.2.47l2.12,3.85h.02l1.72-2.82c.11-.17.22-.38.34-.63.18-.38.27-.66.27-.85,0-.28-.11-.47-.34-.56-.15-.06-.49-.11-1-.15v-.41h3.52v.41c-.26.05-.46.1-.61.16-.19.1-.35.25-.49.45l-3.06,4.99v2.95c0,.61.1,1,.31,1.18.21.17.6.27,1.17.29v.41h-5.56v-.41c.6-.02.99-.12,1.19-.31s.29-.57.29-1.16v-2.36l-2.93-5.33c-.19-.35-.43-.6-.71-.74-.19-.09-.38-.14-.57-.14v-.41h5.37Z"/><path class="cls-2" d="M177.04,76.96c.68.25,1.07.37,1.14.37.2,0,.37-.08.49-.23s.2-.32.23-.49h.45v3.75h-.41c-.39-.81-.78-1.46-1.18-1.93-.75-.87-1.6-1.3-2.55-1.3-1.07,0-1.84.46-2.29,1.39-.45.93-.68,2.17-.68,3.73,0,1.15.13,2.09.4,2.84.5,1.39,1.42,2.08,2.76,2.08.82,0,1.59-.23,2.3-.69.41-.27.89-.69,1.44-1.28l.48.39c-.63.7-1.18,1.21-1.65,1.52-.85.56-1.79.84-2.82.84-1.58,0-2.91-.47-3.98-1.41-1.19-1.04-1.78-2.44-1.78-4.2s.57-3.16,1.7-4.24c1.07-1.01,2.37-1.52,3.92-1.52.67,0,1.34.12,2.03.37Z"/><path class="cls-2" d="M190.32,78.12c1.1,1.07,1.65,2.45,1.65,4.14s-.55,3.07-1.65,4.14c-1.08,1.04-2.42,1.57-4.03,1.57-1.71,0-3.11-.57-4.19-1.72-1.01-1.08-1.51-2.38-1.51-3.9,0-1.68.53-3.06,1.58-4.14,1.07-1.1,2.44-1.64,4.12-1.64s2.96.52,4.03,1.57ZM188.76,85.28c.24-.77.36-1.78.36-3.02,0-1.71-.25-2.99-.76-3.86s-1.2-1.3-2.07-1.3c-1.21,0-2.04.72-2.49,2.17-.24.77-.35,1.76-.35,2.99s.12,2.26.36,3.02c.44,1.43,1.27,2.14,2.49,2.14s2.03-.71,2.48-2.14Z"/><path class="cls-2" d="M192.77,87.23c.61,0,1.01-.11,1.19-.32.18-.21.27-.53.27-.95v-7.62c0-.44-.1-.72-.31-.86-.21-.14-.58-.23-1.11-.27v-.41h4.04l3.16,7.43h.13l3.14-7.43h4.04v.41c-.54.04-.91.14-1.11.3-.2.16-.3.55-.3,1.16v7.1c0,.59.1.98.3,1.16.2.18.57.28,1.11.31v.41h-5.33v-.41c.48-.02.83-.1,1.07-.24.24-.14.36-.46.36-.94v-7.84h-.12l-3.93,9.43h-.43l-3.97-9.24h-.07v7.25c0,.54.1.93.3,1.17.2.25.64.38,1.32.41v.41h-3.75v-.41Z"/><path class="cls-2" d="M208.59,87.23c.53-.04.88-.15,1.06-.33.18-.19.27-.56.27-1.13v-7.1c0-.6-.09-.98-.27-1.14-.18-.16-.54-.27-1.06-.32v-.41h5.16c1.37,0,2.41.22,3.12.67.71.44,1.07,1.21,1.07,2.29,0,.53-.14,1.02-.42,1.48-.28.46-.74.83-1.38,1.12-.49.2-.97.32-1.46.36-.49.04-1.21.06-2.16.06v2.99c0,.59.1.98.3,1.16.2.18.57.28,1.11.31v.41h-5.34v-.41ZM214.43,81.88c.51-.32.76-1.02.76-2.09,0-.73-.12-1.32-.37-1.77-.25-.45-.72-.67-1.41-.67-.32,0-.55.04-.69.11s-.21.22-.21.44v4.31c.96-.02,1.59-.13,1.91-.33Z"/><path class="cls-2" d="M216.91,87.23c.39-.03.7-.2.93-.52.15-.2.37-.65.65-1.35l3.56-8.78h.45l3.58,8.43c.4.95.7,1.55.9,1.83.2.27.48.41.85.4v.41h-5.19v-.41c.52-.02.87-.07,1.03-.13s.25-.24.25-.52c0-.13-.04-.32-.13-.57-.05-.15-.12-.33-.21-.55l-.41-.97h-3.6c-.24.64-.39,1.05-.46,1.25-.14.41-.21.71-.21.9,0,.23.15.4.46.5.18.06.46.09.82.09v.41h-3.27v-.41ZM222.93,83.85l-1.54-3.71h-.13l-1.45,3.71h3.13Z"/><path class="cls-2" d="M228.14,87.23c.6-.02.98-.13,1.15-.34s.26-.52.26-.94v-7.6c-.49-.55-.79-.87-.91-.97-.11-.1-.27-.16-.47-.18v-.41h3.4l5.51,6.7h.08v-4.71c0-.54-.1-.93-.3-1.16-.2-.23-.59-.37-1.18-.42v-.41h3.45v.41c-.5.08-.84.19-1.01.33s-.25.45-.25.94v9.45h-.45l-7.06-8.58h-.11v6.29c0,.49.07.84.2,1.05.21.33.65.51,1.32.54v.41h-3.63v-.41Z"/><path class="cls-2" d="M244.75,76.79v.41c-.55.03-.91.07-1.07.13s-.23.16-.23.33c0,.07.01.15.04.24s.1.24.2.47l2.12,3.85h.02l1.72-2.82c.11-.17.22-.38.34-.63.18-.38.27-.66.27-.85,0-.28-.11-.47-.34-.56-.15-.06-.49-.11-1-.15v-.41h3.52v.41c-.26.05-.46.1-.61.16-.19.1-.35.25-.49.45l-3.06,4.99v2.95c0,.61.1,1,.31,1.18.21.17.6.27,1.17.29v.41h-5.56v-.41c.6-.02.99-.12,1.19-.31s.29-.57.29-1.16v-2.36l-2.93-5.33c-.19-.35-.43-.6-.71-.74-.19-.09-.38-.14-.57-.14v-.41h5.37Z"/><path class="cls-2" d="M76.5,109.27c.01.72.12,1.29.33,1.72.37.75,1.02,1.12,1.97,1.12.51,0,1.01-.16,1.5-.49.49-.32.84-.78,1.05-1.35.19-.52.16-.98-.07-1.36-.16-.25-.54-.61-1.15-1.1l-1.06-.85c-.32-.26-.55-.52-.7-.79-.27-.51-.3-1.06-.08-1.68.29-.81.8-1.48,1.53-2.02.73-.54,1.54-.81,2.43-.81.37,0,.77.09,1.22.27.45.18.71.27.78.27.2,0,.35-.05.46-.14.11-.09.22-.23.32-.4h.33l-.88,3.41h-.38c.11-1.03-.05-1.75-.48-2.15-.43-.41-.93-.61-1.49-.61-.44,0-.87.13-1.29.39-.42.26-.71.62-.88,1.08-.15.41-.15.76,0,1.06.14.3.42.61.83.93l1.1.87c.69.54,1.13,1.04,1.33,1.5.19.46.17,1-.05,1.63-.3.84-.87,1.54-1.71,2.11-.84.56-1.75.85-2.74.85-.5,0-.98-.09-1.45-.28s-.75-.28-.83-.28c-.19,0-.33.06-.44.17-.11.12-.19.24-.26.37h-.35l.75-3.41h.37Z"/><path class="cls-2" d="M83.3,112.27c.58-.05.96-.15,1.16-.29.2-.14.4-.51.62-1.12l1.34-3.73c.12-.34.18-.57.18-.7,0-.21-.13-.32-.38-.32-.06,0-.12,0-.17.02-.06.01-.23.05-.52.13l.09-.24.38-.11c1.02-.3,1.74-.52,2.15-.67.17-.06.27-.09.32-.09,0,.04-.01.08-.03.12l-2.02,5.62c-.21.6-.28.97-.19,1.12.09.15.38.25.87.29l-.08.22h-3.81l.08-.22ZM88.31,101.8c.21-.16.44-.24.67-.24s.39.08.49.24c.1.16.11.35.03.58-.08.22-.23.41-.44.57-.22.16-.44.24-.66.24s-.39-.08-.49-.24c-.1-.16-.11-.35-.03-.57.08-.22.23-.42.44-.58Z"/><path class="cls-2" d="M87.37,112.29c.42-.04.72-.1.89-.2.26-.15.48-.45.64-.91l1.46-4.05c.14-.39.18-.64.12-.76-.06-.12-.21-.18-.44-.18-.11,0-.19,0-.25.02-.06.01-.13.03-.21.05l.1-.27.63-.19c.23-.07.61-.19,1.13-.37.53-.18.81-.27.83-.27s.04.01.03.04-.02.08-.05.15l-.38,1.06c.69-.47,1.25-.79,1.69-.97.44-.18.86-.27,1.26-.27.54,0,.9.18,1.09.55.1.2.14.47.13.81.53-.39.97-.68,1.32-.87.61-.32,1.18-.49,1.69-.49.84,0,1.28.34,1.31,1.03.02.39-.12,1-.42,1.83l-1.17,3.25c-.13.37-.14.62-.02.76.12.13.38.22.79.26l-.07.2h-3.53l.08-.22c.47-.04.8-.13,1-.27.19-.14.37-.43.52-.86l1.21-3.37c.18-.51.26-.88.24-1.12-.04-.43-.34-.64-.9-.64-.34,0-.72.11-1.13.34-.24.13-.55.34-.94.63l-1.44,4.01c-.15.42-.19.74-.12.96.07.22.34.34.82.35l-.07.2h-3.59l.07-.2c.52-.06.88-.18,1.08-.36.2-.18.42-.62.68-1.32l.79-2.19c.29-.8.43-1.35.44-1.66.01-.51-.26-.77-.82-.77-.32,0-.66.09-1.03.26-.37.18-.72.4-1.06.69l-1.54,4.28c-.14.4-.17.67-.09.82.08.15.36.23.82.23l-.07.2h-3.56l.07-.2Z"/><path class="cls-2" d="M98.11,115.73c.5-.03.85-.14,1.04-.31.2-.18.36-.46.5-.84l2.7-7.52c.14-.4.19-.65.13-.76-.06-.11-.22-.17-.48-.17-.06,0-.11,0-.16,0-.05,0-.13.02-.23.03l.09-.26.83-.24s.62-.19,1.77-.54c.03,0,.04.01.05.04,0,.02,0,.05,0,.08l-.38,1.06c.47-.34.86-.6,1.18-.77.58-.29,1.11-.44,1.61-.44.72,0,1.23.31,1.53.92.3.61.26,1.45-.13,2.51-.38,1.04-1.03,1.99-1.96,2.84-.93.85-1.87,1.27-2.81,1.27-.29,0-.53-.04-.72-.11-.3-.11-.53-.31-.71-.6l-.92,2.57c-.19.53-.22.85-.09.97.13.12.48.2,1.04.24l-.1.27h-3.87l.09-.26ZM102.59,111.84c.21.18.49.26.86.26.56,0,1.15-.28,1.75-.84s1.08-1.34,1.44-2.34c.34-.96.39-1.68.15-2.15-.24-.47-.64-.71-1.19-.71-.39,0-.78.12-1.19.36-.4.24-.65.47-.73.7l-1.41,3.93c0,.35.12.62.32.79Z"/><path class="cls-2" d="M107.3,112.27c.5-.05.87-.14,1.09-.29.23-.15.42-.44.57-.87l2.75-7.65c.12-.34.18-.58.17-.71-.03-.22-.2-.33-.52-.33-.07,0-.16,0-.25.02-.09.02-.21.04-.35.07l.09-.26c.77-.19,1.71-.44,2.81-.75.04,0,.05.02.05.05s-.02.1-.06.2l-3.38,9.39c-.16.45-.19.75-.08.88.11.13.4.22.88.25l-.08.22h-3.79l.08-.22Z"/><path class="cls-2" d="M111.42,112.27c.58-.05.96-.15,1.16-.29.2-.14.4-.51.62-1.12l1.34-3.73c.12-.34.18-.57.18-.7,0-.21-.13-.32-.38-.32-.06,0-.12,0-.17.02-.06.01-.23.05-.52.13l.09-.24.38-.11c1.02-.3,1.74-.52,2.15-.67.17-.06.27-.09.32-.09,0,.04-.01.08-.03.12l-2.02,5.62c-.21.6-.28.97-.19,1.12.09.15.38.25.87.29l-.08.22h-3.81l.08-.22ZM116.42,101.8c.21-.16.44-.24.67-.24s.39.08.49.24c.1.16.11.35.03.58-.08.22-.23.41-.44.57-.22.16-.44.24-.66.24s-.39-.08-.49-.24c-.1-.16-.11-.35-.03-.57.08-.22.23-.42.44-.58Z"/><path class="cls-2" d="M115.55,112.27c.56-.03.96-.13,1.2-.31.24-.18.46-.56.67-1.14l1.81-5.03h-1.34l.19-.52h1.34c.3-.83.66-1.52,1.09-2.09.82-1.09,1.8-1.64,2.95-1.64.46,0,.84.09,1.14.27.3.18.39.43.28.74-.06.17-.18.33-.35.46-.17.14-.35.2-.52.2-.15,0-.26-.05-.34-.14-.08-.09-.15-.25-.22-.48l-.06-.2c-.03-.11-.09-.2-.16-.28-.07-.08-.2-.11-.37-.11-.39,0-.73.2-1.01.59-.15.21-.29.48-.41.82l-.67,1.86h1.95l-.19.52h-1.95l-1.81,5.03c-.21.59-.27.97-.17,1.13.1.16.48.27,1.13.32l-.08.22h-4.18l.08-.22Z"/><path class="cls-2" d="M122.98,105.3h3.3l-.08.22c-.26,0-.46.03-.61.07-.27.07-.43.21-.51.41-.03.08-.04.15-.04.23,0,.08,0,.19.02.35l.4,3.92,2.91-3.95s.09-.14.18-.29c.09-.15.14-.25.16-.3.05-.14.04-.24-.03-.3-.07-.06-.18-.1-.32-.11l-.24-.02.08-.22h2.15l-.08.22c-.22.03-.41.1-.56.23-.15.12-.31.3-.46.52l-4.81,6.53c-.83,1.13-1.54,1.94-2.11,2.45-.57.51-1.16.76-1.76.76-.29,0-.54-.07-.74-.22-.2-.15-.25-.38-.13-.7.07-.21.21-.38.41-.51.2-.13.42-.2.65-.2.13,0,.32.05.55.15.23.1.4.15.51.15.29,0,.72-.35,1.29-1.06.58-.71.9-1.18.98-1.4.02-.05.03-.1.04-.17,0-.07.01-.13.01-.18l-.55-5.34c-.04-.39-.1-.64-.19-.76-.09-.12-.26-.2-.51-.24l.08-.22Z"/><path class="cls-2" d="M139.3,101.88l-.11.3c-.37-.01-.66.02-.88.09s-.36.21-.44.44c-.02.07-.04.15-.04.25,0,.1.02.24.07.4l1.12,3.46,3.57-3.52c.15-.15.25-.28.32-.38.06-.1.1-.17.12-.22.08-.23.01-.38-.2-.45-.13-.05-.37-.07-.72-.08l.11-.3h3.5l-.11.3c-.33.02-.65.11-.97.29-.5.28-1.13.79-1.89,1.54l-3.67,3.62-1.12,3.12c-.22.62-.26,1.01-.12,1.16.15.15.56.25,1.25.29l-.11.3h-4.89l.11-.3c.74-.04,1.23-.15,1.47-.32.24-.17.48-.61.73-1.31l1-2.78-.99-3.08c-.34-1.06-.61-1.74-.79-2.04-.18-.3-.48-.46-.89-.48l.11-.3h4.49Z"/><path class="cls-2" d="M143.95,106.23c.92-.72,1.9-1.08,2.94-1.08s1.77.34,2.2,1.02c.43.68.45,1.58.04,2.71-.37,1.04-1.03,1.94-1.96,2.71-.93.77-1.92,1.15-2.97,1.15s-1.72-.37-2.15-1.1c-.43-.74-.44-1.66-.05-2.77.37-1.04,1.02-1.92,1.94-2.63ZM145.27,106.03c-.69.47-1.25,1.29-1.67,2.46-.33.93-.44,1.8-.3,2.6s.57,1.21,1.32,1.21c.59,0,1.13-.27,1.64-.81s.92-1.24,1.23-2.11c.32-.9.43-1.75.31-2.55-.12-.8-.55-1.2-1.32-1.2-.41,0-.82.14-1.22.41Z"/><path class="cls-2" d="M153.09,105.24l-1.8,5.01c-.13.36-.18.64-.16.85.05.4.33.6.85.6.35,0,.74-.12,1.17-.35.24-.13.5-.31.78-.54l1.54-4.29c.14-.4.16-.67.05-.79s-.4-.2-.86-.23l.09-.26h2.53l-1.98,5.51c-.13.36-.15.6-.07.73.08.13.33.19.75.18l-.08.22c-.31.08-.55.14-.7.18-.15.04-.4.11-.76.22-.15.05-.49.16-1.01.34-.03,0-.04-.01-.03-.04,0-.02.01-.05.02-.08l.45-1.26c-.51.42-.94.74-1.31.94-.56.31-1.08.47-1.58.47-.45,0-.82-.16-1.11-.49-.29-.32-.3-.85-.03-1.61l1.46-4.07c.15-.41.16-.69.03-.83-.08-.09-.31-.15-.67-.19l.08-.22h2.34Z"/><path class="cls-2" d="M156.18,112.23c.5-.04.84-.13,1.05-.25.2-.13.38-.4.53-.82l1.27-3.53c.19-.52.27-.89.25-1.11-.02-.22-.15-.33-.41-.33-.05,0-.12,0-.21.02-.09.01-.19.03-.29.05l.09-.26c.33-.1.68-.21,1.03-.32.35-.11.6-.19.73-.23.3-.1.6-.21.92-.34.04,0,.05.01.05.04s-.02.08-.05.16l-.46,1.28c.5-.46.96-.83,1.36-1.09.41-.26.78-.39,1.11-.39.27,0,.46.08.57.24.11.16.12.36.04.6-.08.21-.21.39-.39.54-.18.15-.37.22-.56.22s-.37-.09-.5-.27c-.14-.18-.26-.27-.38-.27-.18,0-.46.15-.83.44-.37.3-.61.6-.73.91l-1.27,3.53c-.16.45-.17.76-.02.94.15.17.46.26.95.25l-.09.26h-3.86l.09-.26Z"/><path class="cls-2" d="M165.01,112.2c.61-.06,1.03-.17,1.26-.32.23-.15.45-.52.67-1.13l2.56-7.13c.2-.57.25-.94.14-1.12-.11-.17-.45-.28-1.03-.32l.11-.3h4.53l-.11.3c-.6.03-1.03.13-1.29.29-.26.16-.48.51-.68,1.04l-2.77,7.7c-.06.18-.08.32-.06.42.02.1.13.17.33.19.11.02.24.03.37.03.13,0,.38,0,.75,0,1.43,0,2.43-.12,3.02-.35.59-.23,1.29-.83,2.11-1.8h.41l-1.78,2.78h-8.63l.11-.3Z"/><path class="cls-2" d="M174.59,112.27c.58-.05.96-.15,1.16-.29.2-.14.4-.51.62-1.12l1.34-3.73c.12-.34.18-.57.18-.7,0-.21-.13-.32-.38-.32-.06,0-.12,0-.17.02-.06.01-.23.05-.52.13l.09-.24.38-.11c1.02-.3,1.74-.52,2.15-.67.17-.06.27-.09.32-.09,0,.04-.01.08-.03.12l-2.02,5.62c-.21.6-.28.97-.19,1.12.09.15.38.25.87.29l-.08.22h-3.81l.08-.22ZM179.6,101.8c.21-.16.44-.24.67-.24s.39.08.49.24c.1.16.11.35.03.58-.08.22-.23.41-.44.57s-.44.24-.66.24-.39-.08-.49-.24c-.1-.16-.11-.35-.03-.57.08-.22.23-.42.44-.58Z"/><path class="cls-2" d="M178.72,112.27c.56-.03.96-.13,1.2-.31.24-.18.46-.56.67-1.14l1.81-5.03h-1.34l.19-.52h1.34c.3-.83.66-1.52,1.09-2.09.82-1.09,1.8-1.64,2.95-1.64.46,0,.84.09,1.14.27.3.18.39.43.28.74-.06.17-.18.33-.35.46-.17.14-.35.2-.52.2-.15,0-.26-.05-.34-.14-.08-.09-.15-.25-.22-.48l-.06-.2c-.03-.11-.09-.2-.16-.28s-.2-.11-.37-.11c-.39,0-.73.2-1.01.59-.15.21-.29.48-.41.82l-.67,1.86h1.95l-.19.52h-1.95l-1.81,5.03c-.21.59-.27.97-.17,1.13.1.16.48.27,1.13.32l-.08.22h-4.18l.08-.22Z"/><path class="cls-2" d="M191.32,105.91c.37.51.39,1.23.05,2.16h-4.97c-.38,1.21-.43,2.09-.13,2.64.3.55.79.83,1.46.83.55,0,1.06-.14,1.54-.43.48-.29.97-.69,1.48-1.22l.24.09c-.45.66-1.07,1.28-1.86,1.84-.79.56-1.61.85-2.46.85-.98,0-1.61-.37-1.87-1.11s-.23-1.59.12-2.56c.38-1.05,1.01-1.95,1.91-2.72.9-.76,1.84-1.14,2.84-1.14.74,0,1.29.25,1.66.76ZM187.35,106.51c-.27.28-.52.64-.74,1.06h3.3c.13-.52.17-.91.12-1.17-.09-.46-.44-.69-1.04-.69s-1.14.26-1.65.79Z"/><path class="cls-2" d="M192.15,112.42c-.11-.17-.12-.38-.03-.63.09-.25.25-.45.49-.63.24-.17.48-.26.72-.26s.42.09.53.26c.11.17.12.38.03.63-.09.25-.25.46-.48.63-.23.18-.47.26-.72.26s-.43-.09-.54-.26Z"/><rect class="cls-3" x=".4" y="91.53" width="269.2" height="4.21"/><rect class="cls-3" x="66.33" y="68.14" width="203.27" height="4.21"/><polygon class="cls-3" points="139.53 5.91 66.33 19.9 66.33 30 139.46 16.02 269.6 37.07 269.6 27.08 139.53 5.91"/><polygon class="cls-3" points="17.98 29.14 .42 32.49 .42 42.6 17.98 39.24 17.98 29.14"/><rect class="cls-3" x=".4" y="68.14" width="17.58" height="4.21"/><path class="cls-3" d="M60.82,20.48c.07-.02.13-.03.19-.05-.07.02-.13.03-.19.05Z"/><path class="cls-3" d="M44.26,23.45v48.84h20.69V20.31c-5.43,1.91-13.08,2.97-20.69,3.14Z"/><path class="cls-3" d="M63.3,6.42c.58.17,1.12.36,1.65.54V0h-20.69v3.81c7.18.15,13.88,1.06,19.04,2.61Z"/><path class="cls-3" d="M39.99,3.82V0h-20.69v7.01c5.4-1.93,13.06-3.02,20.69-3.2Z"/><path class="cls-3" d="M21.14,20.84c-.64-.19-1.25-.4-1.83-.6v52.05h20.69V23.45c-7.11-.16-13.74-1.07-18.86-2.6Z"/></svg>